# xmcd
#
# Track frame offsets: 
#        183
#        16333
#        44058
#        61980
#        81123
#        94653
#        119935
#        142108
#        165128
#        189675
#        212070
#        236505
#
# Disc length: 3322 seconds
#
# Revision: 4
# Processed by: cddbd v1.5.2PL0 Copyright (c) Steve Scherf et al.
# Submitted via: ExactAudioCopy v1.0b3
#
DISCID=a90cf80c
DTITLE=Rev. Johnny Thompson and The Johnny Thompson Singers - The Spirit
DTITLE=Of Gospel
DYEAR=1987
DGENRE=Gospel
TTITLE0=Ride On King Jesus
TTITLE1=It Was A Glorious Day
TTITLE2=If You Abide In My Word
TTITLE3=God Put A Rainbow In The Sky
TTITLE4=Jesus Is Keeping Me Alive
TTITLE5=The Lord Is
TTITLE6=Jericho Road
TTITLE7=Will You BeThere
TTITLE8=I'll Be With Thee
TTITLE9=Who Shall Abide
TTITLE10=You May Look For Me
TTITLE11=On My Way To Zion
EXTD=YEAR: 1987 ID3G: 38
EXTT0=
EXTT1=
EXTT2=
EXTT3=
EXTT4=
EXTT5=
EXTT6=
EXTT7=
EXTT8=
EXTT9=
EXTT10=
EXTT11=
PLAYORDER=
